<?xml version="1.0" standalone="no"?>
<!DOCTYPE svg PUBLIC "-//W3C//DTD SVG 20010904//EN"
 "http://www.w3.org/TR/2001/REC-SVG-20010904/DTD/svg10.dtd">
<svg version="1.0" xmlns="http://www.w3.org/2000/svg"
 width="512.000000pt" height="512.000000pt" viewBox="0 0 512.000000 512.000000"
 preserveAspectRatio="xMidYMid meet">
<metadata>
Created by potrace 1.14, written by Peter Selinger 2001-2017
</metadata>
<g transform="translate(0.000000,512.000000) scale(0.100000,-0.100000)"
fill="#000000" stroke="none">
<path d="M3337 4714 c-1 -1 -42 -4 -92 -8 -107 -8 -157 -14 -255 -31 -8 -1
-35 -6 -60 -10 -322 -52 -830 -245 -1225 -465 -275 -153 -652 -410 -865 -589
-34 -29 -87 -59 -140 -80 -306 -122 -539 -267 -636 -396 -67 -88 -64 -47 -61
-868 l2 -743 35 -58 c123 -205 552 -468 1164 -715 519 -210 1055 -345 1361
-345 330 1 663 161 975 469 88 87 99 94 150 104 204 37 395 181 552 415 62 94
113 188 143 268 12 34 34 62 79 100 103 89 274 259 346 343 158 187 251 358
299 549 6 24 11 259 11 580 0 515 -1 545 -20 615 -50 179 -184 342 -396 484
-257 170 -622 315 -892 352 -20 3 -46 7 -57 10 -54 11 -408 27 -418 19z m308
-108 c287 -29 523 -100 805 -241 217 -109 411 -266 488 -396 107 -181 109
-392 6 -603 l-36 -76 -57 52 c-177 162 -571 355 -874 428 -151 36 -211 45
-372 59 -471 38 -1075 -98 -1628 -369 l-67 -33 -29 27 c-55 53 -101 159 -116
266 -19 142 -25 162 -49 188 -38 43 -75 63 -123 69 -27 3 -49 7 -51 8 -2 1 52
35 120 75 136 80 478 251 603 300 167 66 371 135 455 155 8 1 42 10 75 18 267
69 605 98 850 73z m-2021 -748 c17 -15 27 -37 30 -63 15 -126 21 -156 42 -219
27 -80 78 -161 140 -221 121 -118 336 -215 574 -260 159 -30 203 -31 905 -27
195 2 243 0 335 -12 209 -27 368 -99 502 -228 53 -51 138 -164 138 -184 0 -31
-455 -347 -710 -493 -163 -93 -208 -144 -264 -300 -36 -100 -49 -182 -49 -316
-1 -232 30 -353 104 -406 56 -40 112 -31 224 34 52 31 95 53 95 51 0 -35 -252
-311 -370 -405 -159 -127 -397 -247 -543 -274 l-38 -7 30 58 c44 89 88 242
115 409 36 217 37 227 41 495 5 331 -16 474 -82 545 -182 201 -1382 733 -2148
954 -169 48 -345 86 -400 86 l-40 0 -3 -46 -3 -45 83 -13 c46 -7 151 -30 233
-52 83 -22 157 -41 166 -43 50 -13 375 -126 545 -190 233 -87 360 -138 579
-234 255 -111 279 -122 480 -223 214 -108 362 -196 417 -249 57 -54 72 -144
73 -430 0 -235 -6 -331 -31 -490 -52 -334 -142 -548 -231 -551 -99 -4 -297 20
-408 49 -22 6 -53 13 -70 16 -177 30 -728 213 -980 326 -22 10 -74 32 -115 50
-205 89 -451 223 -615 334 -105 72 -234 196 -258 248 -15 33 -17 103 -17 750
0 669 2 715 19 753 55 122 295 276 637 411 130 50 363 129 368 123 2 -2 6 -29
9 -59 21 -221 203 -437 512 -607 123 -68 303 -138 404 -158 13 -2 31 -7 41
-10 30 -9 59 -15 165 -30 185 -26 229 -28 680 -30 400 -2 533 -6 608 -21 144
-27 206 -48 272 -94 24 -17 47 -30 52 -29 4 0 20 15 36 34 l27 33 -37 30 c-79
62 -194 104 -351 128 -85 13 -207 17 -592 19 -267 2 -494 5 -506 8 -11 3 -52
8 -90 11 -38 3 -78 8 -89 10 -11 2 -38 6 -60 10 -288 50 -582 186 -768 356
-169 155 -248 370 -184 498 39 79 140 170 222 200 54 19 121 15 149 -10z
m-465 -150 c-9 -21 -75 -55 -86 -45 -3 4 91 75 95 72 1 -1 -2 -14 -9 -27z
m2556 9 c372 -43 839 -242 1080 -460 l59 -54 -69 -89 c-73 -93 -235 -261 -344
-357 l-63 -56 -41 61 c-83 125 -233 251 -368 311 -30 13 -92 34 -139 47 -165
44 -235 49 -735 47 -514 -2 -578 2 -750 44 -127 32 -298 102 -339 139 -11 10
33 33 201 103 331 140 680 236 948 262 39 4 72 9 74 11 5 5 436 -3 486 -9z
m1280 -1091 c-41 -142 -136 -307 -266 -460 -45 -52 -222 -231 -275 -276 -231
-200 -545 -425 -839 -598 -130 -76 -163 -92 -183 -85 -76 27 -91 439 -22 614
49 122 91 175 176 219 70 35 311 185 429 265 418 283 748 590 932 865 27 41
54 84 59 95 6 13 10 -81 12 -265 2 -280 2 -287 -23 -374z m-790 -1103 c-112
-193 -282 -360 -424 -413 l-53 -21 34 48 c19 26 56 83 82 125 46 74 54 82 202
184 85 58 157 110 160 115 3 5 10 9 16 9 5 0 -2 -21 -17 -47z"/>
</g>
</svg>
